<svg xmlns="http://www.w3.org/2000/svg" width="83.185" height="60.442" viewBox="0 0 83.185 60.442"><path d="M150.374,281.648l-26.866,33.143h3.174v15.9h57.206v-7.725Zm6.772,22.314h-.979v-3.228h-7.942v27.173h7.942V324.77h.979v4.116H143.972V299.755h13.174Z" transform="translate(-116.051 -271.224)" fill="#f6de8c"/><path d="M82.77,166.679,41.257,217.891l.761.617,5.9-7.282h2.989v15.9h59.164v-8.432h13.582l.787-.638Zm26.325,59.463H51.889v-15.9H48.714L75.581,177.1l33.514,41.314Z" transform="translate(-41.257 -166.679)" fill="#9f2843"/><path d="M349.217,510.485h13.174v-4.116h-.979v3.137h-7.942V482.333h7.942v3.228h.979v-4.207H349.217Z" transform="translate(-321.295 -452.823)" fill="#9f2843"/></svg>