<svg xmlns="http://www.w3.org/2000/svg" viewBox="0 0 182.73 43.87"><defs><style>.cls-1{fill:#006937;}.cls-2{fill:#80bc00;}.cls-3{fill:#3d3935;}</style></defs><title>elixirZorka</title><g id="Layer_2" data-name="Layer 2"><g id="Layer_1-2" data-name="Layer 1"><path class="cls-1" d="M20.27,22c6-4.16,3.82-8.64,0-14.09-4.31,6.16-5.92,10,0,14.09M40.19,5l-.06-2-1.94-.52A73.25,73.25,0,0,0,19.42,0,59.83,59.83,0,0,0,1.91,2.44L.09,3,0,4.91c0,.42,0,.92,0,1.48A51.47,51.47,0,0,0,2.91,23.5,36.55,36.55,0,0,0,18.74,43.06l1.36.81,1.37-.81a36.66,36.66,0,0,0,15.8-19.75A52.49,52.49,0,0,0,40.2,6.16c0-.43,0-.81,0-1.15m-8,16.49a32.74,32.74,0,0,1-8.55,13.28c-1.22-4-1.75-7.66-.69-8.27s3.3-.66,4.63-1A4.93,4.93,0,0,0,29,25.06a1.53,1.53,0,0,0,.76-.9,2.16,2.16,0,0,0,.13-.72,1.42,1.42,0,0,0-.26-.84,2.58,2.58,0,0,0-.94-.8,4.63,4.63,0,0,0-2.18-.54h0a5.5,5.5,0,0,0-4.78,3.06h0c-1.29,2.35-1.79,7-1.79,13.08v0A31.35,31.35,0,0,1,8,21.67,46.11,46.11,0,0,1,5.38,7.05a56.94,56.94,0,0,1,14-1.67,67.17,67.17,0,0,1,15.4,1.81A47.67,47.67,0,0,1,32.21,21.5"/><path class="cls-2" d="M13.77,21.21h0a4.54,4.54,0,0,0-2.13.53,2.41,2.41,0,0,0-.91.77,1.39,1.39,0,0,0-.25.82,2.05,2.05,0,0,0,.13.7,1.48,1.48,0,0,0,.73.88,5.38,5.38,0,0,0,1.33.47c.87.21,2,.35,3.23.61A11.57,11.57,0,0,1,19,27.05c0-.18,0-.35,0-.53a5.14,5.14,0,0,0-.49-2.21,5.37,5.37,0,0,0-4.72-3.1"/><path class="cls-3" d="M69.3,32.18H53.63V11.71H69.24v4.4H58.52v3.54h10.1V24H58.52v3.74H69.3Z"/><path class="cls-3" d="M75.2,32.18H70.62V11.71H75.2Z"/><path class="cls-3" d="M81.64,13.42a2.74,2.74,0,1,1-2.73-2.74A2.69,2.69,0,0,1,81.64,13.42Zm-.42,18.76H76.64V17.84h4.58Z"/><path class="cls-3" d="M92.45,24.94l5.06,7.24H92.19l-2.82-4.12-2.73,4.12H81.37l5.11-7.24-4.94-7.1h5.34l2.67,4.08,2.63-4.08h5.26Z"/><path class="cls-3" d="M102.68,13.42a2.74,2.74,0,1,1-2.74-2.74A2.69,2.69,0,0,1,102.68,13.42Zm-.43,18.76H97.68V17.84h4.57Z"/><path class="cls-3" d="M113.61,17.66l-.43,4.56a7.77,7.77,0,0,0-2.29-.38,2.33,2.33,0,0,0-2.62,2.59v7.75H103.7V17.84h4.38v1.65a4.25,4.25,0,0,1,3.92-2A6.09,6.09,0,0,1,113.61,17.66Z"/><path class="cls-3" d="M130,14.26,118.84,29H130v3.13H114.46V29.61l11.17-14.78H114.49V11.7H130Z"/><path class="cls-3" d="M145.23,25.17a7.54,7.54,0,1,1-7.54-7.37A7.28,7.28,0,0,1,145.23,25.17Zm-11.93,0a4.4,4.4,0,1,0,8.79,0,4.4,4.4,0,1,0-8.79,0Z"/><path class="cls-3" d="M159.69,23.49h1.54l4.62-5.32h3.84l-5.86,6.59,5.92,7.41h-3.87l-4.67-5.91h-1.52v5.91h-3.07V11.71h3.07Z"/><path class="cls-3" d="M182.73,32.17h-3.06V30.49a5.31,5.31,0,0,1-4.4,2,7,7,0,0,1-7-7.36,7,7,0,0,1,7-7.37,5.32,5.32,0,0,1,4.4,2.06V18.17h3.06Zm-11.31-7a4.23,4.23,0,1,0,8.45,0,4.23,4.23,0,1,0-8.45,0Z"/><path class="cls-3" d="M155.91,18.19l-.73,3a5.43,5.43,0,0,0-2.33-.51c-1.94,0-3.33,1.37-3.33,3.76v7.7h-3.06v-14h3v1.57a4.67,4.67,0,0,1,4.06-1.94A6.31,6.31,0,0,1,155.91,18.19Z"/></g></g></svg>